<svg viewBox="0 -25 512.00047 512" xmlns="http://www.w3.org/2000/svg"><path d="m363.003906 184.285156h-214.007812c0-23.402344 2.75-45.742187 7.761718-66.183594 1.5-6.148437 3.210938-12.140624 5.109376-17.917968 18.101562-55.203125 53.472656-92.683594 94.132812-92.683594 20.039062 0 38.789062 9.101562 54.8125 24.941406 16.507812 16.300782 30.140625 39.742188 39.320312 67.742188 1.898438 5.777344 3.609376 11.769531 5.109376 17.917968 5.011718 20.441407 7.761718 42.78125 7.761718 66.183594zm0 0" fill="#fa0"/><path d="m363.003906 184.285156h-115.34375c74.863282-26.953125 70.632813-109.84375 63.152344-151.84375 16.507812 16.300782 30.140625 39.742188 39.320312 67.742188 1.898438 5.777344 3.609376 11.769531 5.109376 17.917968 5.011718 20.441407 7.761718 42.78125 7.761718 66.183594zm0 0" fill="#ff8b00"/><path d="m355.242188 118.101562h-198.484376c1.5-6.148437 3.210938-12.140624 5.109376-17.917968h188.265624c1.898438 5.777344 3.609376 11.769531 5.109376 17.917968zm0 0" fill="#2dc471"/><path d="m355.242188 118.101562h-46.230469c1.699219-5.898437 2.949219-11.910156 3.839843-17.917968h37.28125c1.898438 5.777344 3.609376 11.769531 5.109376 17.917968zm0 0" fill="#08af57"/><path d="m503.796875 179.335938-16.03125 38.917968c-5.070313 12.300782-13.78125 22.363282-24.589844 29.121094-9.703125 6.082031-21.101562 9.492188-33.0625 9.492188h-348.226562c-11.960938 0-23.359375-3.410157-33.0625-9.492188-10.808594-6.757812-19.519531-16.820312-24.589844-29.121094l-16.03125-38.917968c-2.519531-6.132813 1.980469-12.851563 8.601563-12.851563h478.390624c6.621094 0 11.121094 6.71875 8.601563 12.851563zm0 0" fill="#ffd02f"/><g fill="#ff4e61"><path d="m129.039062 256.867188h-47.152343c-11.960938 0-23.359375-3.410157-33.0625-9.492188l37.882812-78.890625zm0 0"/><path d="m213.679688 256.863281-42.324219-88.378906-42.320313 88.378906zm0 0"/><path d="m298.324219 256.863281-42.324219-88.378906-42.320312 88.378906zm0 0"/><path d="m382.96875 256.863281-42.324219-88.378906-42.320312 88.378906zm0 0"/><path d="m463.175781 247.375c-9.703125 6.082031-21.101562 9.492188-33.0625 9.492188h-47.152343l42.332031-88.382813zm0 0"/></g><path d="m87.102967 281.791717h.105466" fill="none" stroke="#fa0" stroke-linecap="round" stroke-miterlimit="10" stroke-width="15" transform="matrix(1.00002 0 0 1.00002 .001 -49.837)"/><path d="m171.29647 281.791717h.109373" fill="none" stroke="#fa0" stroke-linecap="round" stroke-miterlimit="10" stroke-width="15" transform="matrix(1.00002 0 0 1.00002 .001 -49.837)"/><path d="m255.49388 281.791717h.109373" fill="none" stroke="#fa0" stroke-linecap="round" stroke-miterlimit="10" stroke-width="15" transform="matrix(1.00002 0 0 1.00002 .001 -49.837)"/><path d="m339.69129 281.791717h.105466" fill="none" stroke="#fa0" stroke-linecap="round" stroke-miterlimit="10" stroke-width="15" transform="matrix(1.00002 0 0 1.00002 .001 -49.837)"/><path d="m426.220681 281.791717h.105466" fill="none" stroke="#fa0" stroke-linecap="round" stroke-miterlimit="10" stroke-width="15" transform="matrix(1.00002 0 0 1.00002 .001 -49.837)"/><path d="m218.5 321.820312c-14.902344 0-27.773438 8.691407-33.820312 21.28125-6.765626 9.792969-18.058594 16.214844-30.859376 16.214844-9.371093 0-21.117187-8.457031-24.554687-31.53125-.453125-3.050781-4.664063-3.511718-5.796875-.644531-5.734375 14.492187-7.152344 26.65625-7.152344 32.175781 0 20.710938 15.300782 35.394532 35.167969 41.242188 24.691406 7.265625 55.777344 3.820312 69.003906-.070313 22.667969-6.667969 35.511719-20.457031 35.511719-41.167969 0-20.710937-16.789062-37.5-37.5-37.5zm0 0" fill="#bc6c35"/><path d="m293.5 321.820312c14.902344 0 27.773438 8.691407 33.820312 21.28125 6.765626 9.792969 18.058594 16.214844 30.859376 16.214844 9.371093 0 21.117187-8.457031 24.554687-31.53125.453125-3.050781 4.664063-3.511718 5.796875-.644531 5.734375 14.492187 7.152344 26.65625 7.152344 32.175781 0 20.710938-15.300782 35.394532-35.167969 41.242188-24.691406 7.265625-55.777344 3.820312-69.003906-.070313-22.667969-6.667969-35.511719-20.457031-35.511719-41.167969 0-20.710937 16.789062-37.5 37.5-37.5zm0 0" fill="#af4d00"/><path d="m509.15625 166.4375c-3.125-4.667969-8.347656-7.453125-13.964844-7.453125h-125.75c-4.195312-49.476563-20.769531-94.363281-45.828125-123.777344-2.6875-3.152343-7.417969-3.53125-10.574219-.84375-3.152343 2.683594-3.53125 7.417969-.84375 10.570313 6.78125 7.960937 12.890626 17.199218 18.238282 27.445312h-148.859375c2.738281-5.238281 5.675781-10.230468 8.808593-14.925781 18.273438-27.375 41.578126-42.453125 65.617188-42.453125 10.976562 0 21.792969 3.097656 32.15625 9.207031 3.570312 2.105469 8.167969.917969 10.273438-2.652343 2.101562-3.566407.914062-8.164063-2.652344-10.269532-12.703125-7.488281-26.085938-11.285156-39.777344-11.285156-57.675781 0-105.757812 67.90625-113.433594 158.984375h-125.757812c-5.617188 0-10.835938 2.785156-13.964844 7.453125-3.125 4.667969-3.714844 10.554688-1.574219 15.75l16.027344 38.921875c10.820313 26.273437 36.175781 43.253906 64.59375 43.253906h74.683594c4.144531 0 7.5-3.355469 7.5-7.5s-3.355469-7.5-7.5-7.5h-15.632813l30.414063-63.515625 30.414062 63.515625h-11.015625c-4.140625 0-7.5 3.355469-7.5 7.5s3.359375 7.5 7.5 7.5h239.359375c28.417969 0 53.769531-16.980469 64.589844-43.253906l16.027344-38.921875c2.140625-5.195312 1.550781-11.082031-1.574219-15.75zm-348.75 7.546875-31.371094 65.511719-31.378906-65.511719zm95.59375 11.863281 30.414062 63.515625h-60.828124zm-42.320312 53.648438-31.375-65.511719h62.746093zm53.269531-65.511719h62.746093l-31.371093 65.511719zm73.695312 11.863281 30.414063 63.515625h-60.828125zm10.949219-11.863281h62.75l-31.378906 65.511719zm-184.234375-66.304687h177.269531c.292969.972656.578125 1.945312.859375 2.921874h-178.992187c.28125-.976562.570312-1.949218.863281-2.921874zm170.050781-20.300782c.722656 1.746094 1.429688 3.511719 2.113282 5.300782h-167.054688c.683594-1.785157 1.386719-3.554688 2.113281-5.300782zm-174.699218 38.222656h186.574218c2.359375 10.738282 4.066406 21.917969 5.089844 33.382813h-196.757812c1.023437-11.460937 2.734374-22.636719 5.09375-33.382813zm-131.542969 89.796876-16.027344-38.921876c-.300781-.738281-.074219-1.328124.167969-1.691406.246094-.367187.703125-.800781 1.5-.800781h58.9375l-29.777344 62.015625c-6.335938-5.492188-11.453125-12.476562-14.800781-20.601562zm27.488281 28.832031 28.042969-58.402344 30.429687 63.535156h-35.238281c-8.222656 0-16.117187-1.816406-23.234375-5.132812zm336.214844 5.132812 30.429687-63.535156 28.042969 58.402344c-7.117188 3.316406-15.011719 5.132812-23.234375 5.132812zm101.988281-72.886719-16.027344 38.921876c-3.34375 8.125-8.464843 15.109374-14.800781 20.601562l-29.777344-62.015625h58.9375c.796875 0 1.253906.433594 1.5.800781.242188.363282.472656.953125.167969 1.691406zm0 0"/><path d="m87.210938 224.460938h-.105469c-4.144531 0-7.5 3.355468-7.5 7.5 0 4.140624 3.355469 7.5 7.5 7.5h.105469c4.144531 0 7.5-3.359376 7.5-7.5 0-4.144532-3.355469-7.5-7.5-7.5zm0 0"/><path d="m178.910156 231.960938c0-4.144532-3.359375-7.5-7.5-7.5h-.109375c-4.140625 0-7.5 3.355468-7.5 7.5 0 4.140624 3.359375 7.5 7.5 7.5h.109375c4.140625 0 7.5-3.359376 7.5-7.5zm0 0"/><path d="m255.609375 224.460938h-.109375c-4.140625 0-7.5 3.355468-7.5 7.5 0 4.140624 3.359375 7.5 7.5 7.5h.109375c4.140625 0 7.5-3.359376 7.5-7.5 0-4.144532-3.359375-7.5-7.5-7.5zm0 0"/><path d="m339.804688 224.460938h-.105469c-4.140625 0-7.5 3.355468-7.5 7.5 0 4.140624 3.359375 7.5 7.5 7.5h.105469c4.144531 0 7.5-3.359376 7.5-7.5 0-4.144532-3.355469-7.5-7.5-7.5zm0 0"/><path d="m426.335938 224.460938h-.105469c-4.140625 0-7.5 3.355468-7.5 7.5 0 4.140624 3.359375 7.5 7.5 7.5h.105469c4.144531 0 7.503906-3.359376 7.503906-7.5 0-4.144532-3.359375-7.5-7.503906-7.5zm0 0"/><path d="m384.507812 317.796875c-4.789062.550781-8.480468 4.121094-9.191406 8.882813-2.585937 17.363281-10.46875 25.136718-17.132812 25.136718-9.671875 0-18.746094-4.679687-24.386719-12.542968-7.566406-15.179688-23.3125-24.953126-40.292969-24.953126-15.640625 0-29.433594 8.023438-37.5 20.164063-8.070312-12.140625-21.863281-20.164063-37.503906-20.164063-16.980469 0-32.726562 9.773438-40.292969 24.953126-5.640625 7.863281-14.714843 12.542968-24.386719 12.542968-6.664062 0-14.546874-7.769531-17.132812-25.136718-.710938-4.761719-4.402344-8.332032-9.191406-8.882813-4.800782-.554687-9.222656 2.09375-11 6.585937-5.660156 14.300782-7.675782 27.425782-7.675782 34.933594 0 22.519532 15.539063 41.078125 40.550782 48.4375 11.332031 3.335938 23.726562 4.570313 35.324218 4.570313 15.605469 0 29.761719-2.242188 37.910157-4.640625 15.285156-4.492188 26.578125-12.15625 33.382812-22.363282 3.574219 5.394532 8.394531 10.089844 14.425781 13.957032 3.484376 2.234375 8.125 1.222656 10.363282-2.265625 2.234375-3.484375 1.21875-8.125-2.265625-10.359375-10.101563-6.480469-15.007813-15.417969-15.007813-27.332032 0-16.539062 13.457032-30 30-30 11.46875 0 22.089844 6.683594 27.058594 17.03125.171875.351563.367188.6875.589844 1.011719 8.414062 12.183594 22.253906 19.453125 37.03125 19.453125 9.570312 0 21.328125-6.167968 27.921875-22.496094 1.996093 8.511719 2.078125 14.128907 2.078125 14.996094 0 15.832032-11.132813 28.558594-29.785156 34.046875-19.644532 5.78125-41.882813 3.816407-50.527344 2.703125-4.105469-.527344-7.867188 2.375-8.398438 6.480469-.527344 4.109375 2.375 7.867187 6.480469 8.394531 4.464844.574219 12.207031 1.351563 21.464844 1.351563 10.628906 0 23.257812-1.019531 35.214843-4.539063 25.011719-7.359375 40.550782-25.917968 40.550782-48.4375 0-7.507812-2.015625-20.632812-7.675782-34.933594-1.777343-4.492187-6.199218-7.148437-11-6.585937zm-166.136718 75.496094c-10.609375 3.117187-40.398438 7.238281-64.769532.070312-18.648437-5.488281-29.785156-18.214843-29.785156-34.046875 0-.871094.085938-6.484375 2.082032-14.996094 6.589843 16.324219 18.347656 22.496094 27.921874 22.496094 14.773438 0 28.617188-7.269531 37.03125-19.453125.222657-.324219.417969-.660156.585938-1.015625 4.972656-10.34375 15.59375-17.027344 27.0625-17.027344 16.542969 0 30 13.457032 30 30 0 16.664063-10.136719 28.09375-30.128906 33.972657zm0 0"/></svg>